<svg xmlns="http://www.w3.org/2000/svg" viewBox="155 -117.3 1101.7 846.3">
  <path fill="#ACBCBB" d="M1108 665.1V-53.5c0-20.2-16.4-36.6-36.6-36.6H340.3c-20.2 0-36.6 16.4-36.6 36.6v718.8c0 20.2 16.4 36.6 36.6 36.6h406.1V383.8H641.6V274.3h104.8v-119c0-71.2 64.6-119.2 116.7-119.2h117.3v99.7h-54.3c-26.6 0-62.3 21.7-62.3 48.3v90.2h105.7v109.5H863.9v317.9h207.3c20.4 0 36.8-16.4 36.8-36.6z"/>
  <path fill="#FFFDFD" d="M2139.8 1257.4c-30.8 13.7-63.8 23-98.6 27 35.3-21.3 62.7-54.8 75.4-94.9-33.2 19.7-69.8 33.9-109 41.5-31.3-33.3-76-54.1-125.2-54.1-94.7 0-171.6 76.9-171.6 171.6 0 13.5 1.5 26.6 4.4 39.2-142.7-7.1-268.9-75.4-353.6-179.3-14.8 25.3-23.1 54.8-23.1 86.2 0 59.6 30.2 112 76.3 142.8-28.1-.9-54.5-8.6-77.8-21.5v2.2c0 83.1 59.2 152.5 137.6 168.2-14.4 3.8-29.5 6-45.2 6-11.1 0-21.9-1.1-32.2-3.1 21.9 68.1 85.3 117.7 160.3 119.2-58.7 46.1-132.6 73.4-213 73.4-13.8 0-27.5-.7-41-2.4 76 48.6 166.2 77.1 262.9 77.1 315.6 0 488.1-261.4 488.1-488.1 0-7.5-.2-14.8-.5-22.2 33.9-24.1 62.9-54.4 85.8-88.8z"/>
  <path fill="#D2E4EC" d="M16672.6 1004.9h-5775.8c-178 0-322.5-144.3-322.5-322.5V-409.9c0-178 144.3-322.5 322.5-322.5h5775.9c178 0 322.5 144.3 322.5 322.5V682.4c-.1 178-144.4 322.5-322.6 322.5z"/>
  <path d="M12313.7-328.2h578.8v176h-364.8V64.6h340.9v174.7h-340.9V621h-214.1l.1-949.2zm741 12.5c69.1-11.3 170.4-19.7 285.9-19.7 140.8 0 239.4 21.1 307 74.7 57.8 45 88.7 112.6 88.7 200 0 119.7-85.8 202.8-167.6 232.5v4.2c66.1 26.8 102.8 88.7 126.8 176 29.5 108.4 57.8 232.3 76 268.9h-219.7c-14-28.2-38.1-104.2-64.9-221.2-26.8-119.7-67.6-150.7-156.3-152.1h-63.4v373.3h-212.6l.1-936.6zm212.6 408.5h84.5c106.9 0 170.4-53.6 170.4-136.6 0-86-59.2-131-157.8-131-52.1 0-81.6 2.7-97.1 7.1V92.8zm1187.4 126.8h-349.3V445h390.1v176h-604.2v-949.2h584.5v176h-370.4V44.9h349.3v174.7zm752.3 0h-349.3V445h390.1v176h-604.2v-949.2h584.5v176h-370.4V44.9h349.3v174.7zM1393.4 944.5h-388.1v210.7H886.1V945c-81.7 5.5-145.9 72-145.9 153v485.1c0 84.7 70.2 153.4 157.1 153.4h496.2c86.9 0 157.1-68.6 157.1-153.4V1098c.1-84.8-70.3-153.5-157.2-153.5zm-222.5 595.1c-103.5 0-187.5-83.9-187.5-187.5 0-103.7 84.2-187.5 187.5-187.5 103.7 0 187.9 83.9 187.9 187.5 0 103.7-84.2 187.5-187.9 187.5zm295.3-357.3h-146.9v-146.8h146.8l.1 146.8z" fill="#FFFFFF"/>
</svg>
