<?xml version="1.0" encoding="utf-8"?>
<!-- Generator: Adobe Illustrator 19.1.0, SVG Export Plug-In . SVG Version: 6.00 Build 0)  -->
<svg version="1.1" id="Layer_1" xmlns="http://www.w3.org/2000/svg" xmlns:xlink="http://www.w3.org/1999/xlink" x="0px" y="0px"
	 viewBox="155 -117.3 1101.7 846.3" enable-background="new 155 -117.3 1101.7 846.3" xml:space="preserve">
<g>
	<g>
		<path fill="#ACBCBB" d="M1108,665.1V-53.5c0-20.2-16.4-36.6-36.6-36.6H1006H405.7h-65.4c-20.2,0-36.6,16.4-36.6,36.6v653.2v65.6
			c0,20.2,16.4,36.6,36.6,36.6h406.1V383.8H641.6V274.3h104.8v-119c0-71.2,64.6-119.2,116.7-119.2h117.3v99.7h-54.3
			c-26.6,0-62.3,21.7-62.3,48.3v90.2h105.7v109.5H863.9v317.9h141.9h65.4C1091.6,701.7,1108,685.3,1108,665.1z"/>
	</g>
</g>
<path fill="#FFFDFD" d="M2139.8,1257.4c-30.8,13.7-63.8,23-98.6,27c35.3-21.3,62.7-54.8,75.4-94.9c-33.2,19.7-69.8,33.9-109,41.5
	c-31.3-33.3-76-54.1-125.2-54.1c-94.7,0-171.6,76.9-171.6,171.6c0,13.5,1.5,26.6,4.4,39.2c-142.7-7.1-268.9-75.4-353.6-179.3
	c-14.8,25.3-23.1,54.8-23.1,86.2c0,59.6,30.2,112,76.3,142.8c-28.1-0.9-54.5-8.6-77.8-21.5c0,0.7,0,1.5,0,2.2
	c0,83.1,59.2,152.5,137.6,168.2c-14.4,3.8-29.5,6-45.2,6c-11.1,0-21.9-1.1-32.2-3.1c21.9,68.1,85.3,117.7,160.3,119.2
	c-58.7,46.1-132.6,73.4-213,73.4c-13.8,0-27.5-0.7-41-2.4c76,48.6,166.2,77.1,262.9,77.1c315.6,0,488.1-261.4,488.1-488.1
	c0-7.5-0.2-14.8-0.5-22.2C2087.9,1322.1,2116.9,1291.8,2139.8,1257.4z"/>
<g>
	<g>
		<path fill="#D2E4EC" d="M16672.6,1004.9h-5775.8c-178,0-322.5-144.3-322.5-322.5V-409.9c0-178,144.3-322.5,322.5-322.5h5775.9
			c178,0,322.5,144.3,322.5,322.5V682.4C16995.1,860.4,16850.8,1004.9,16672.6,1004.9z"/>
	</g>
	<g>
		<path fill="#FFFFFF" d="M12313.7-328.2h578.8v176h-364.8V64.6h340.9v174.7h-340.9V621h-214.1L12313.7-328.2L12313.7-328.2z"/>
		<path fill="#FFFFFF" d="M13054.7-315.7c69.1-11.3,170.4-19.7,285.9-19.7c140.8,0,239.4,21.1,307,74.7c57.8,45,88.7,112.6,88.7,200
			c0,119.7-85.8,202.8-167.6,232.5v4.2c66.1,26.8,102.8,88.7,126.8,176c29.5,108.4,57.8,232.3,76,268.9h-219.7
			c-14-28.2-38.1-104.2-64.9-221.2c-26.8-119.7-67.6-150.7-156.3-152.1h-63.4v373.3h-212.6L13054.7-315.7L13054.7-315.7z
			 M13267.3,92.8h84.5c106.9,0,170.4-53.6,170.4-136.6c0-86-59.2-131-157.8-131c-52.1,0-81.6,2.7-97.1,7.1L13267.3,92.8
			L13267.3,92.8z"/>
		<path fill="#FFFFFF" d="M14454.7,219.6h-349.3V445h390.1v176h-604.2v-949.2h584.5v176h-370.4V44.9h349.3L14454.7,219.6
			L14454.7,219.6z"/>
		<path fill="#FFFFFF" d="M15207,219.6h-349.3V445h390.1v176h-604.2v-949.2h584.5v176h-370.4V44.9h349.3L15207,219.6L15207,219.6z"
			/>
	</g>
</g>
<path fill="#FFFFFF" d="M1393.4,944.5h-388.1v210.7H886.1V945c-81.7,5.5-145.9,72-145.9,153v485.1c0,84.7,70.2,153.4,157.1,153.4
	h496.2c86.9,0,157.1-68.6,157.1-153.4V1098C1550.7,1013.2,1480.3,944.5,1393.4,944.5z M1170.9,1539.6
	c-103.5,0-187.5-83.9-187.5-187.5c0-103.7,84.2-187.5,187.5-187.5c103.7,0,187.9,83.9,187.9,187.5
	C1358.8,1455.8,1274.6,1539.6,1170.9,1539.6z M1466.2,1182.3h-146.9v-146.8h146.8L1466.2,1182.3L1466.2,1182.3z"/>
</svg>
