<?xml version="1.0" encoding="utf-8"?>
<!-- Generator: Adobe Illustrator 19.1.0, SVG Export Plug-In . SVG Version: 6.00 Build 0)  -->
<svg version="1.1" id="Layer_1" xmlns="http://www.w3.org/2000/svg" xmlns:xlink="http://www.w3.org/1999/xlink" x="0px" y="0px"
	 viewBox="245 -27.3 1101.7 846.3" style="enable-background:new 245 -27.3 1101.7 846.3;" xml:space="preserve">
<style type="text/css">
	.st0{fill:#231F20;}
	.st1{fill:#FFFDFD;}
	.st2{fill:#D2E4EC;}
	.st3{fill:#FFFFFF;}
</style>
<g>
	<g>
		<path class="st0" d="M1282,725.7V7.1c0-20.2-16.4-36.6-36.6-36.6H1180H579.7h-65.4c-20.2,0-36.6,16.4-36.6,36.6v653.2v65.6
			c0,20.2,16.4,36.6,36.6,36.6h406.1V444.4H815.6V334.9h104.8v-119c0-71.2,64.6-119.2,116.7-119.2h117.3v99.7h-54.3
			c-26.6,0-62.3,21.7-62.3,48.3v90.2h105.7v109.5h-105.6v317.9h141.9h65.4C1265.6,762.3,1282,745.9,1282,725.7z"/>
	</g>
</g>
<path class="st1" d="M1984.8,1374.7c-30.8,13.7-63.8,23-98.6,27c35.3-21.3,62.7-54.8,75.4-94.9c-33.2,19.7-69.8,33.9-109,41.5
	c-31.3-33.3-76-54.1-125.2-54.1c-94.7,0-171.6,76.9-171.6,171.6c0,13.5,1.5,26.6,4.4,39.2c-142.7-7.1-268.9-75.4-353.6-179.3
	c-14.8,25.3-23.1,54.8-23.1,86.2c0,59.6,30.2,112,76.3,142.8c-28.1-0.9-54.5-8.6-77.8-21.5c0,0.7,0,1.5,0,2.2
	c0,83.1,59.2,152.5,137.6,168.2c-14.4,3.8-29.5,6-45.2,6c-11.1,0-21.9-1.1-32.2-3.1c21.9,68.1,85.3,117.7,160.3,119.2
	c-58.7,46.1-132.6,73.4-213,73.4c-13.8,0-27.5-0.7-41-2.4c76,48.6,166.2,77.1,262.9,77.1c315.6,0,488.1-261.4,488.1-488.1
	c0-7.5-0.2-14.8-0.5-22.2C1932.9,1439.4,1961.9,1409.1,1984.8,1374.7z"/>
<g>
	<g>
		<path class="st2" d="M16517.6,1122.2h-5775.8c-178,0-322.5-144.3-322.5-322.5V-292.6c0-178,144.3-322.5,322.5-322.5h5775.9
			c178,0,322.5,144.3,322.5,322.5V799.7C16840.1,977.7,16695.8,1122.2,16517.6,1122.2z"/>
	</g>
	<g>
		<path class="st3" d="M12158.7-210.9h578.8v176h-364.8v216.8h340.9v174.7h-340.9v381.7h-214.1L12158.7-210.9L12158.7-210.9z"/>
		<path class="st3" d="M12899.7-198.4c69.1-11.3,170.4-19.7,285.9-19.7c140.8,0,239.4,21.1,307,74.7c57.8,45,88.7,112.6,88.7,200
			c0,119.7-85.8,202.8-167.6,232.5v4.2c66.1,26.8,102.8,88.7,126.8,176c29.5,108.4,57.8,232.3,76,268.9h-219.7
			c-14-28.2-38.1-104.2-64.9-221.2c-26.8-119.7-67.6-150.7-156.3-152.1h-63.4v373.3h-212.6L12899.7-198.4L12899.7-198.4z
			 M13112.3,210.1h84.5c106.9,0,170.4-53.6,170.4-136.6c0-86-59.2-131-157.8-131c-52.1,0-81.6,2.7-97.1,7.1L13112.3,210.1
			L13112.3,210.1z"/>
		<path class="st3" d="M14299.7,336.9h-349.3v225.4h390.1v176h-604.2v-949.2h584.5v176h-370.4v197.1h349.3L14299.7,336.9
			L14299.7,336.9z"/>
		<path class="st3" d="M15052,336.9h-349.3v225.4h390.1v176h-604.2v-949.2h584.5v176h-370.4v197.1h349.3L15052,336.9L15052,336.9z"
			/>
	</g>
</g>
<path class="st3" d="M1238.4,1061.8H850.3v210.7H731.1v-210.2c-81.7,5.5-145.9,72-145.9,153v485.1c0,84.7,70.2,153.4,157.1,153.4
	h496.2c86.9,0,157.1-68.6,157.1-153.4v-485.1C1395.7,1130.5,1325.3,1061.8,1238.4,1061.8z M1015.9,1656.9
	c-103.5,0-187.5-83.9-187.5-187.5c0-103.7,84.2-187.5,187.5-187.5c103.7,0,187.9,83.9,187.9,187.5
	C1203.8,1573.1,1119.6,1656.9,1015.9,1656.9z M1311.2,1299.6h-146.9v-146.8h146.8L1311.2,1299.6L1311.2,1299.6z"/>
</svg>
