<?xml version="1.0" encoding="utf-8"?>
<!-- Generator: Adobe Illustrator 19.1.0, SVG Export Plug-In . SVG Version: 6.00 Build 0)  -->
<svg version="1.1" id="Layer_1" xmlns="http://www.w3.org/2000/svg" xmlns:xlink="http://www.w3.org/1999/xlink" x="0px" y="0px"
	 viewBox="0 0 561.5 326.7" enable-background="new 0 0 561.5 326.7" xml:space="preserve">
<g>
	<g>
		<g>
			<g>
				<path fill="#FFFFFF" d="M132.6,235.8c-0.8-2.5-10.8-34.2-14.9-47.2c-0.4,1.4-0.9,3-1.4,4.7c3.9,12.5,14.3,45.3,15.1,47.9
					c0,0.1,0,0.1,0,0.1l1.1-1.8C132.5,239.6,133.3,238.1,132.6,235.8z M148.1,244.6c0,0-0.9-1.3-0.6-3.7l-15.8,1.7
					c0.3,2.4-0.6,3.8-0.6,3.8L148.1,244.6z M98.3,250.1c0,0-0.7-1.5-0.6-3.7l-15.4,1.7c0.3,2.3-0.4,3.8-0.4,3.8L98.3,250.1z
					 M83.1,241.2c-4.8-15.7-19.2-62.9-20.1-65.8l-4.4,0.5c0,0,2.5,2.6,3.2,4.8c0.6,1.8,15.2,50,20.1,65.9c0.1,0.3,0.2,0.5,0.2,0.8
					l1-2.2C83.2,245.1,83.8,243.6,83.1,241.2z"/>
			</g>
			<g>
				<path fill="#FFFFFF" d="M183.4,162.5l-3.4,0.3c0,0,1.4,1.8,1.3,5.1c-0.1,2.2,0,47.8,0,66.7l0.1-0.2c0,0,2-4.5,2-7.1
					C183.3,208.6,183.3,168.8,183.4,162.5z M195.4,235.8l-14.2,1.5c-0.3,2.4-1.2,3.9-1.2,3.9l16.8-1.8
					C196.8,239.4,195.7,238.2,195.4,235.8z"/>
			</g>
			<g>
				<path fill="#FFFFFF" d="M256.1,229.4c-2.8,0.3-41.8,4.6-42.2,4.6l-2.1,0.2v-2.1c0-2.8,0-64.5,0-72.7l-3.7,0.3
					c0,0,1.4,2.2,1.3,4.9c0,2.7,0,73.5,0,73.5s40.6-4.3,43.4-4.6c2.8-0.3,5.2,0.6,5.2,0.6l0-4.7
					C257.5,229.3,256.8,229.3,256.1,229.4z"/>
			</g>
			<g>
				<path fill="#FFFFFF" d="M304.9,194.9c-1.6-1.2-3.8-2.2-6.3-2.9c-2.7-0.8-5.7-1.4-8.8-2c-3.4-0.6-6.6-1.7-9.5-3.1
					c-3-1.5-5.6-3.7-7.6-6.5c-2.1-2.9-3.1-6.9-3.1-12c0-0.5,0-1.1,0-1.6c-0.8,2.3-1.1,4.8-1.1,7.5c0,4.7,0.9,8.3,2.8,10.9
					c1.8,2.6,4.1,4.5,6.9,5.9c2.7,1.4,5.7,2.4,9,3c3.3,0.6,6.2,1.3,9,2.1c2.7,0.8,5,1.8,6.9,3.2c1.5,1.1,2.4,2.6,2.7,4.7
					c0.1-0.1,0.2-0.3,0.2-0.4c0.7-1.2,1-2.5,1-3.9C306.9,197.5,306.2,195.9,304.9,194.9z M306.4,223.7c-3.6,1.5-7.5,2.4-11.5,2.9
					c-1.6,0.2-3.2,0.3-4.8,0.3c-3.4,0-6.8-0.4-10-1.2c-3.1-0.8-6-2.1-8.5-3.9c-0.3-0.2-0.5-0.4-0.8-0.6c-0.8-0.6-1.4-1.1-2-1.3
					l-3.7,3.9c2.1,0.1,3.3,1.4,4.6,2.3c2.4,1.7,5,2.9,7.9,3.6c4.5,1.1,9.2,1.4,14.1,0.9c3.8-0.4,7.5-1.3,11-2.8
					c3.5-1.4,6.5-3.3,9.2-5.6c1.4-1.2,2.6-2.6,3.6-4C312.8,220.4,309.8,222.3,306.4,223.7z M310,160.4c-0.4-1.9-1-2.4-1.5-2.7
					c-0.7-0.4-1.4-0.7-2.2-0.9c-2.2-0.7-4.6-0.9-7.1-0.6c-1.5,0.2-2.9,0.5-4.3,1c-1.3,0.5-2.5,1.1-3.6,1.9c-1,0.8-1.8,1.8-2.4,2.9
					c-0.1,0.2-0.2,0.4-0.3,0.6c0.8-0.5,1.7-0.9,2.7-1.3c1.5-0.5,3.1-0.9,4.7-1.1c2.7-0.3,5.3-0.1,7.8,0.7c1,0.3,1.8,0.7,2.7,1.1
					c1.3,0.7,2,2.1,2.4,4l1.8-2.1L310,160.4z"/>
			</g>
			<g>
				<path fill="#FFFFFF" d="M390,212.6c-5.3,2.7-11.2,4.4-17.5,5.2c-2,0.2-3.9,0.3-5.8,0.3c-4.1,0-8-0.5-11.6-1.5
					c-5.3-1.5-10-3.9-13.8-7.3c-3.9-3.4-6.9-7.6-9.1-12.7c-2.2-5-3.3-10.8-3.3-17.2c0-2.1,0.1-4.2,0.4-6.2c-1,3.8-1.4,7.9-1.4,12.2
					c0,6.1,1,11.6,3.1,16.4c2.1,4.8,4.9,8.8,8.6,12c3.7,3.2,8,5.5,13.1,6.9c5.1,1.4,10.6,1.8,16.7,1.1c6.1-0.7,11.8-2.4,16.9-5
					s9.5-5.9,13.2-9.9c0.6-0.7,1.2-1.4,1.8-2.1C397.9,207.9,394.1,210.5,390,212.6z M397.5,171.2c0-3.7-0.6-7.1-1.8-10.1
					c-1.2-3-2.9-5.6-5.1-7.7c-2.1-2.1-4.8-3.6-7.8-4.6c-2.2-0.7-4.6-1.1-7.1-1.1c-1,0-2.1,0.1-3.2,0.2c-3.8,0.4-7.3,1.5-10.3,3.1
					c-3.1,1.7-5.7,3.9-8,6.5c-0.4,0.5-0.8,0.9-1.1,1.4c1.6-1.4,3.3-2.6,5.2-3.6c3.3-1.8,7-2.9,11-3.4c4.1-0.4,7.8-0.1,11.1,1
					c3.3,1.1,6.2,2.8,8.5,5.1c2.4,2.3,4.2,5.1,5.5,8.3c1.3,3.3,1.9,6.9,1.9,10.8c0,1.1-0.1,2.3-0.2,3.4
					C397.1,177.6,397.5,174.4,397.5,171.2z"/>
			</g>
			<g>
				<path fill="#FFFFFF" d="M493.3,203.5l-15.8,1.7l-36.3-52.3v7l34.2,49.3l19.4-2.1C494.8,207.1,493.7,205.8,493.3,203.5z
					 M476.8,130.5c0,0,1.4,2.5,1.4,4.9v38.7l2,2.9v-46.9L476.8,130.5z M423.5,136.3l-3.7,0.3c0,0,1.7,2.3,1.8,4.9
					c0,2.1,0,49.3,0,66.9c0,0,1.9-2.7,1.9-6.8C423.4,180.2,423.5,142.4,423.5,136.3z M436.5,209.6l-14.2,1.6
					c-0.3,2.4-1.1,3.9-1.1,3.9l16.6-1.9C437.8,213.2,436.9,211.6,436.5,209.6z"/>
			</g>
		</g>
	</g>
	<g>
		<g>
			<path fill="#FFFFFF" d="M115,112.8c0-3.6-0.2-4.5-2.4-4.5l-1.6,0c-0.4-0.2-0.3-1,0-1.2c2.6-0.6,6-1.1,10.5-1.6
				c3.1-0.4,6-0.5,8.2,0.4c2.1,0.8,3.7,2.5,3.7,5.7c0,3.5-2.1,5.6-5,7.3c0,0.5,0.4,0.6,0.9,0.6c2.6,0.2,6.5,2.2,6.5,7.4
				c0,5.7-4.2,10-13,11c-1.4,0.2-3.8,0.3-5.9,0.5c-2.1,0.3-3.8,0.5-5.6,0.8c-0.3-0.1-0.4-0.9-0.1-1.2l0.9-0.3
				c2.6-0.7,2.7-1.3,2.7-6.4V112.8z M119.1,118.8c0,1.4,0,1.5,2.5,1.1c5-0.8,7.7-2.6,7.7-7.2c0-4.8-3.6-6.2-7.3-5.7
				c-1.1,0.1-1.8,0.3-2.2,0.6c-0.5,0.2-0.7,0.5-0.7,1.4V118.8z M119.1,130.2c0,1.8,0.1,4.2,1,5.2c0.9,1,2.4,1.1,3.9,0.9
				c4.4-0.5,7.7-2.9,7.7-7.7c0-3.9-2-8.1-9.7-7.2c-2.6,0.3-2.8,0.6-2.8,1.6V130.2z"/>
			<path fill="#FFFFFF" d="M219,119.2c0,1.3,0,6.3,0.1,7.4c-0.1,0.3-0.3,0.5-0.8,0.6c-0.5-0.7-1.7-2-5.4-5.8l-9.9-10.1
				c-1.1-1.2-4-4.3-4.9-5.2l-0.1,0c-0.2,0.5-0.2,1.5-0.2,2.8v9.3c0,2,0,7.5,0.8,8.7c0.3,0.4,1.1,0.6,2.2,0.6l1.3,0
				c0.3,0.3,0.2,0.8-0.1,1.1c-1.9,0.1-3.4,0.3-5,0.5c-1.8,0.2-2.9,0.4-4.4,0.6c-0.3-0.2-0.3-0.8-0.1-1.1l1.1-0.3
				c1-0.2,1.7-0.6,1.9-1.1c0.6-1.6,0.6-6.8,0.6-8.8v-12.3c0-1.2,0-2.1-0.9-3c-0.6-0.5-1.6-0.7-2.6-0.7l-0.7,0
				c-0.3-0.2-0.3-0.9,0.1-1.1c1.8-0.1,4-0.3,4.8-0.4c0.7-0.1,1.4-0.2,2-0.4c0.9,2.1,5.9,7.1,7.3,8.5l4.1,4.2c2.9,2.9,5,5.1,7,6.9
				l0.1,0c0.2-0.2,0.2-0.9,0.2-1.8v-9.1c0-2,0-7.5-0.9-8.7c-0.3-0.4-0.9-0.5-2.6-0.5h-0.7c-0.3-0.2-0.3-0.9,0.1-1.1
				c2-0.1,3.4-0.3,5-0.5c1.8-0.2,2.9-0.4,4.4-0.6c0.3,0.2,0.3,0.8,0.1,1.1L222,99c-1.4,0.4-2.2,0.8-2.4,1.2
				c-0.7,1.6-0.6,6.9-0.6,8.8V119.2z"/>
			<path fill="#FFFFFF" d="M229.4,102.7c0-3-0.2-3.8-2-3.9l-0.9,0c-0.3-0.2-0.4-0.8,0-1.1c3.6-0.6,7.1-1.2,10.7-1.6
				c3.6-0.4,6.6-0.5,9.4,0.2c5.7,1.4,8.6,5.9,8.6,11.5c0,5.4-2.6,10.3-7.5,13.6c-2.8,1.8-6.3,2.8-9.5,3.2c-2.7,0.3-5.4,0.3-6.9,0.5
				c-1.8,0.2-3.3,0.4-5.3,0.8c-0.3-0.1-0.3-0.8-0.1-1.1l1-0.2c2.5-0.6,2.6-1.2,2.6-5.6V102.7z M232.9,117.5c0,2.3,0.1,3.6,0.9,4.5
				c0.9,1.2,2.6,1.4,5.2,1.1c8.3-1,12-6.8,12-14.7c0-4.7-2.3-12.3-13.4-11c-2.5,0.3-3.9,0.8-4.2,1.1c-0.3,0.3-0.4,1.4-0.4,3.3V117.5
				z"/>
			<path fill="#FFFFFF" d="M333.8,91.3c0-4.7-0.4-5.2-2.9-5.1l-1.1,0c-0.3-0.1-0.2-0.9,0.1-1.1c2.5-0.2,3.9-0.3,5.7-0.5
				c1.7-0.2,3.1-0.4,4.9-0.7c0.3,0.1,0.3,0.9,0.1,1.1l-0.6,0.2c-2.5,0.6-2.6,1.2-2.6,5.8v15.8c0,3.4-0.2,6.3-1,8.4
				c-1.4,3.6-4.4,6.7-8.4,7.1c-0.5,0.1-1.8,0.2-1.8-0.7c0-0.7,0.6-2,1.5-2.1c0.5-0.1,1,0,1.6,0.1c0.6,0.1,1.2,0.2,1.8,0.1
				c0.9-0.1,1.4-0.7,1.7-1.3c1-2.1,1.1-8.5,1.1-10.8V91.3z"/>
			<path fill="#FFFFFF" d="M369.5,107.8h-1.1H369.5L369.5,107.8L369.5,107.8z M369.5,108.9c-0.3,0-0.6,0-0.9,0.1
				C368.8,108.9,369.1,108.9,369.5,108.9L369.5,108.9C369.5,108.9,369.5,108.9,369.5,108.9C369.5,108.9,369.5,108.9,369.5,108.9
				C369.5,108.9,369.5,108.9,369.5,108.9z"/>
			<path fill="#FFFFFF" d="M370.7,107.6c0.1,0,0.2-0.1,0.3-0.1L370.7,107.6z M370.2,108.8L370.2,108.8c0.1,0,0.1,0,0.2,0
				C370.3,108.8,370.2,108.8,370.2,108.8z"/>
			<path fill="#FFFFFF" d="M413.2,81.9c0-4.4-0.1-5.1-2.6-5.1l-0.7,0c-0.3-0.1-0.2-0.9,0.1-1.1c1.8-0.1,3.3-0.3,5-0.5l8-0.9
				c2.7-0.3,5.2-0.6,5.7-0.8c0.3,0.7,0.5,3.7,0.7,5.6c-0.2,0.3-0.9,0.4-1.1,0.2c-0.6-1.9-1-3.4-3.2-3.7c-0.9-0.1-2.3,0-4.1,0.2
				l-3.1,0.4c-1.3,0.2-1.3,0.2-1.3,1.9v8.5c0,1.2,0.1,1.2,1.4,1l2.5-0.3c1.8-0.2,3.1-0.5,3.6-0.7c0.5-0.2,0.8-0.5,1-1.6l0.3-1.8
				c0.2-0.3,0.9-0.4,1.1-0.1c0,1-0.2,2.7-0.2,4.3c0,1.5,0.2,3.1,0.2,4.1c-0.2,0.3-0.9,0.4-1.1,0.2l-0.4-1.6
				c-0.2-0.7-0.5-1.3-1.3-1.5c-0.6-0.1-1.6,0-3.3,0.2l-2.5,0.3c-1.3,0.2-1.4,0.2-1.4,1.3v6c0,2.3,0.1,3.7,0.8,4.3
				c0.5,0.5,1.4,0.8,5.2,0.4c3.3-0.4,4.5-0.7,5.4-1.3c0.8-0.5,1.9-2.1,3-4.5c0.3-0.2,0.9-0.2,1.1,0.2c-0.3,1.5-1.4,4.9-1.9,6.1
				c-3.8,0.4-7.6,0.8-11.4,1.2l-3.8,0.5c-1.8,0.2-3.3,0.4-5.8,0.8c-0.3-0.1-0.3-0.8-0.1-1.1l1.4-0.3c2.4-0.5,2.6-1.2,2.6-5.6V81.9z"
				/>
			<path fill="#FFFFFF" d="M442.1,100.9c-3.6,0.4-5.8-0.4-6.6-0.8c-0.5-0.9-1.1-3.8-1.1-5.8c0.2-0.3,0.9-0.5,1-0.2
				c0.6,2.1,2.4,6.1,7.3,5.5c3.6-0.4,5.3-3,5.3-5.5c0-1.9-0.4-3.9-3.5-5.5l-4-2.2c-2.1-1.2-4.6-3.3-4.6-6.8c0-4,3.2-7.7,8.7-8.3
				c1.3-0.2,2.9-0.1,4,0.1c0.6,0.1,1.2,0.1,1.5,0.1c0.4,1,0.8,3.3,0.8,5.1c-0.2,0.3-0.9,0.5-1.1,0.3c-0.6-2-1.7-4.6-5.8-4.1
				c-4.2,0.5-5.1,3.4-5.1,5.3c0,2.5,2,4,3.6,4.8l3.4,1.7c2.7,1.3,5.3,3.5,5.3,7.5C451.2,96.6,447.6,100.2,442.1,100.9z"/>
		</g>
		<g>
			<g>
				<path fill="#FFFFFF" d="M115,112.8c0-3.6-0.2-4.5-2.4-4.5l-1.6,0c-0.4-0.2-0.3-1,0-1.2c2.6-0.6,6-1.1,10.5-1.6
					c3.1-0.4,6-0.5,8.2,0.4c2.1,0.8,3.7,2.5,3.7,5.7c0,3.5-2.1,5.6-5,7.3c0,0.5,0.4,0.6,0.9,0.6c2.6,0.2,6.5,2.2,6.5,7.4
					c0,5.7-4.2,10-13,11c-1.4,0.2-3.8,0.3-5.9,0.5c-2.1,0.3-3.8,0.5-5.6,0.8c-0.3-0.1-0.4-0.9-0.1-1.2l0.9-0.3
					c2.6-0.7,2.7-1.3,2.7-6.4V112.8z M119.1,118.8c0,1.4,0,1.5,2.5,1.1c5-0.8,7.7-2.6,7.7-7.2c0-4.8-3.6-6.2-7.3-5.7
					c-1.1,0.1-1.8,0.3-2.2,0.6c-0.5,0.2-0.7,0.5-0.7,1.4V118.8z M119.1,130.2c0,1.8,0.1,4.2,1,5.2c0.9,1,2.4,1.1,3.9,0.9
					c4.4-0.5,7.7-2.9,7.7-7.7c0-3.9-2-8.1-9.7-7.2c-2.6,0.3-2.8,0.6-2.8,1.6V130.2z"/>
			</g>
			<g>
				<path fill="#FFFFFF" d="M219,119.2c0,1.3,0,6.3,0.1,7.4c-0.1,0.3-0.3,0.5-0.8,0.6c-0.5-0.7-1.7-2-5.4-5.8l-9.9-10.1
					c-1.1-1.2-4-4.3-4.9-5.2l-0.1,0c-0.2,0.5-0.2,1.5-0.2,2.8v9.3c0,2,0,7.5,0.8,8.7c0.3,0.4,1.1,0.6,2.2,0.6l1.3,0
					c0.3,0.3,0.2,0.8-0.1,1.1c-1.9,0.1-3.4,0.3-5,0.5c-1.8,0.2-2.9,0.4-4.4,0.6c-0.3-0.2-0.3-0.8-0.1-1.1l1.1-0.3
					c1-0.2,1.7-0.6,1.9-1.1c0.6-1.6,0.6-6.8,0.6-8.8v-12.3c0-1.2,0-2.1-0.9-3c-0.6-0.5-1.6-0.7-2.6-0.7l-0.7,0
					c-0.3-0.2-0.3-0.9,0.1-1.1c1.8-0.1,4-0.3,4.8-0.4c0.7-0.1,1.4-0.2,2-0.4c0.9,2.1,5.9,7.1,7.3,8.5l4.1,4.2c2.9,2.9,5,5.1,7,6.9
					l0.1,0c0.2-0.2,0.2-0.9,0.2-1.8v-9.1c0-2,0-7.5-0.9-8.7c-0.3-0.4-0.9-0.5-2.6-0.5h-0.7c-0.3-0.2-0.3-0.9,0.1-1.1
					c2-0.1,3.4-0.3,5-0.5c1.8-0.2,2.9-0.4,4.4-0.6c0.3,0.2,0.3,0.8,0.1,1.1L222,99c-1.4,0.4-2.2,0.8-2.4,1.2
					c-0.7,1.6-0.6,6.9-0.6,8.8V119.2z"/>
			</g>
			<g>
				<path fill="#FFFFFF" d="M229.4,102.7c0-3-0.2-3.8-2-3.9l-0.9,0c-0.3-0.2-0.4-0.8,0-1.1c3.6-0.6,7.1-1.2,10.7-1.6
					c3.6-0.4,6.6-0.5,9.4,0.2c5.7,1.4,8.6,5.9,8.6,11.5c0,5.4-2.6,10.3-7.5,13.6c-2.8,1.8-6.3,2.8-9.5,3.2c-2.7,0.3-5.4,0.3-6.9,0.5
					c-1.8,0.2-3.3,0.4-5.3,0.8c-0.3-0.1-0.3-0.8-0.1-1.1l1-0.2c2.5-0.6,2.6-1.2,2.6-5.6V102.7z M232.9,117.5c0,2.3,0.1,3.6,0.9,4.5
					c0.9,1.2,2.6,1.4,5.2,1.1c8.3-1,12-6.8,12-14.7c0-4.7-2.3-12.3-13.4-11c-2.5,0.3-3.9,0.8-4.2,1.1c-0.3,0.3-0.4,1.4-0.4,3.3
					V117.5z"/>
			</g>
			<g>
				<path fill="#FFFFFF" d="M333.8,91.3c0-4.7-0.4-5.2-2.9-5.1l-1.1,0c-0.3-0.1-0.2-0.9,0.1-1.1c2.5-0.2,3.9-0.3,5.7-0.5
					c1.7-0.2,3.1-0.4,4.9-0.7c0.3,0.1,0.3,0.9,0.1,1.1l-0.6,0.2c-2.5,0.6-2.6,1.2-2.6,5.8v15.8c0,3.4-0.2,6.3-1,8.4
					c-1.4,3.6-4.4,6.7-8.4,7.1c-0.5,0.1-1.8,0.2-1.8-0.7c0-0.7,0.6-2,1.5-2.1c0.5-0.1,1,0,1.6,0.1c0.6,0.1,1.2,0.2,1.8,0.1
					c0.9-0.1,1.4-0.7,1.7-1.3c1-2.1,1.1-8.5,1.1-10.8V91.3z"/>
			</g>
			<g>
				<path fill="#FFFFFF" d="M370.3,108.8c1.1-0.1,2.5-0.4,3.6-0.5C372.8,108.4,371.5,108.6,370.3,108.8z M369.5,108.9
					C369.5,108.9,369.5,108.9,369.5,108.9L369.5,108.9C369.5,108.9,369.5,108.9,369.5,108.9c0.1,0,0.2,0,0.3,0
					C369.7,108.8,369.6,108.8,369.5,108.9z"/>
			</g>
			<g>
				<path fill="#FFFFFF" d="M413.2,81.9c0-4.4-0.1-5.1-2.6-5.1l-0.7,0c-0.3-0.1-0.2-0.9,0.1-1.1c1.8-0.1,3.3-0.3,5-0.5l8-0.9
					c2.7-0.3,5.2-0.6,5.7-0.8c0.3,0.7,0.5,3.7,0.7,5.6c-0.2,0.3-0.9,0.4-1.1,0.2c-0.6-1.9-1-3.4-3.2-3.7c-0.9-0.1-2.3,0-4.1,0.2
					l-3.1,0.4c-1.3,0.2-1.3,0.2-1.3,1.9v8.5c0,1.2,0.1,1.2,1.4,1l2.5-0.3c1.8-0.2,3.1-0.5,3.6-0.7c0.5-0.2,0.8-0.5,1-1.6l0.3-1.8
					c0.2-0.3,0.9-0.4,1.1-0.1c0,1-0.2,2.7-0.2,4.3c0,1.5,0.2,3.1,0.2,4.1c-0.2,0.3-0.9,0.4-1.1,0.2l-0.4-1.6
					c-0.2-0.7-0.5-1.3-1.3-1.5c-0.6-0.1-1.6,0-3.3,0.2l-2.5,0.3c-1.3,0.2-1.4,0.2-1.4,1.3v6c0,2.3,0.1,3.7,0.8,4.3
					c0.5,0.5,1.4,0.8,5.2,0.4c3.3-0.4,4.5-0.7,5.4-1.3c0.8-0.5,1.9-2.1,3-4.5c0.3-0.2,0.9-0.2,1.1,0.2c-0.3,1.5-1.4,4.9-1.9,6.1
					c-3.8,0.4-7.6,0.8-11.4,1.2l-3.8,0.5c-1.8,0.2-3.3,0.4-5.8,0.8c-0.3-0.1-0.3-0.8-0.1-1.1l1.4-0.3c2.4-0.5,2.6-1.2,2.6-5.6V81.9z
					"/>
			</g>
			<g>
				<path fill="#FFFFFF" d="M442.1,100.9c-3.6,0.4-5.8-0.4-6.6-0.8c-0.5-0.9-1.1-3.8-1.1-5.8c0.2-0.3,0.9-0.5,1-0.2
					c0.6,2.1,2.4,6.1,7.3,5.5c3.6-0.4,5.3-3,5.3-5.5c0-1.9-0.4-3.9-3.5-5.5l-4-2.2c-2.1-1.2-4.6-3.3-4.6-6.8c0-4,3.2-7.7,8.7-8.3
					c1.3-0.2,2.9-0.1,4,0.1c0.6,0.1,1.2,0.1,1.5,0.1c0.4,1,0.8,3.3,0.8,5.1c-0.2,0.3-0.9,0.5-1.1,0.3c-0.6-2-1.7-4.6-5.8-4.1
					c-4.2,0.5-5.1,3.4-5.1,5.3c0,2.5,2,4,3.6,4.8l3.4,1.7c2.7,1.3,5.3,3.5,5.3,7.5C451.2,96.6,447.6,100.2,442.1,100.9z"/>
			</g>
		</g>
	</g>
	<g>
		<path fill="#FFFFFF" d="M67.9,89.3c0,0,213.9-26.9,428.8-44.1C496.7,45.1,283.8,69.5,67.9,89.3z"/>
	</g>
	<g>
		<path fill="#FFFFFF" d="M67.9,276.1c0,0,213.9-26.9,428.8-44.1C496.7,231.9,283.8,256.3,67.9,276.1z"/>
	</g>
	<g>
		<g>
			<path fill="#FFFFFF" d="M189.2,123.9c-1.1,2.3-2.2,4-3,4.5c-0.9,0.6-2.2,0.9-5.5,1.3c-3.7,0.5-4.6,0.1-5.1-0.4
				c-0.7-0.6-0.8-2.1-0.8-4.3v-6c0-1.1,0.1-1.2,1.4-1.3l2.5-0.3c1.7-0.2,2.7-0.3,3.3-0.2c0.9,0.1,1.1,0.7,1.3,1.5l0.4,1.6
				c0.2,0.2,0.9,0.1,1.1-0.2c0-0.9-0.2-2.5-0.2-4.1c0-1.6,0.2-3.3,0.2-4.3c-0.2-0.3-0.9-0.2-1.1,0.1l-0.3,1.8
				c-0.2,1.1-0.5,1.4-1,1.6c-0.5,0.2-1.8,0.5-3.6,0.7l-2.5,0.3c-1.3,0.1-1.4,0.2-1.4-1v-8.5c0-1.6,0-1.7,1.3-1.9l3.1-0.4
				c1.9-0.2,3.2-0.3,4.1-0.2c2.2,0.3,2.6,1.7,3.2,3.7c0.2,0.2,0.9,0.1,1.1-0.2c-0.2-1.9-0.4-4.9-0.7-5.6c-0.5,0.2-3,0.5-5.7,0.8
				l-8,0.9c-1.7,0.2-3.2,0.3-5,0.5c-0.3,0.2-0.3,0.9-0.1,1.1l0.7,0c2.5,0,2.6,0.6,2.6,5v15.3c0,4.5-0.2,5.1-2.6,5.6l-1,0.2h0
				c-1.2,0.2-2.6,0.4-3.4-0.2c-2.9-2.1-5.2-5.2-8.6-10.3c-0.2-0.3-0.4-0.7-0.2-1c2.1-1.1,5.3-3.7,5.3-7.7c0-3-1.5-4.7-3.5-5.5
				c-2-0.8-4.5-0.8-7.1-0.4c-4.2,0.5-7.1,1-9.5,1.5c-0.3,0.2-0.3,0.9,0,1.1l1.4,0c1.8,0,1.9,0.7,1.9,4.8V129c0,4.5-0.1,5-2.6,5.6
				l-1.1,0.2c-0.3,0.3-0.2,1,0.1,1c2-0.3,3.5-0.5,5.3-0.8c1.7-0.2,3.2-0.3,5.1-0.5c0.3-0.2,0.3-0.9,0.1-1.1l-0.9,0
				c-2.5-0.1-2.5-0.6-2.5-5v-5.4c0-0.9,0.1-0.9,2-1.2c1.7-0.2,2.4,0.2,3,1c1.3,1.8,3.1,4.5,4.2,5.9c3,3.9,5.2,4.8,8.8,4.3
				c0.6,0,1.2-0.2,1.6-0.3c0.5-0.1,0.9-0.3,1.2-0.4c0,0,0,0,0,0c2-0.3,3.3-0.5,4.8-0.7l3.8-0.5c3.8-0.4,7.6-0.8,11.4-1.2
				c0.6-1.2,1.6-4.6,1.9-6.1C190.1,123.7,189.5,123.7,189.2,123.9z M154.8,119c-1.2,1.1-2.9,1.4-4.4,1.6c-2.2,0.3-2.8,0.2-2.9,0.1
				c-0.1-0.2-0.1-0.6-0.1-1.4v-10c0-1.2,0.1-1.4,2.8-1.7c4.7-0.6,6.8,2.4,6.8,5.8C156.9,116.3,155.9,118,154.8,119z"/>
			<path fill="#FFFFFF" d="M315.6,86.9c-1.5,0.3-2.6,0.4-4.4,0.6c-1.6,0.2-3.1,0.3-5,0.5c-0.3,0.2-0.4,0.8-0.1,1.1h0.7
				c1.7,0,2.4,0.2,2.6,0.5c0.8,1.2,0.9,6.7,0.9,8.7v9.1c0,0.9,0,1.6-0.2,1.8l-0.1,0c-2-1.8-4.1-4-7-6.9l-4.1-4.2
				c-1.4-1.4-6.4-6.4-7.3-8.5c-0.6,0.2-1.3,0.3-2,0.4c-0.8,0.1-3,0.4-4.8,0.4c-0.3,0.2-0.3,0.9-0.1,1.1h0.7c1,0,2,0.2,2.6,0.7
				c0.9,0.9,0.9,1.8,0.9,3v12.3c0,2,0,7.2-0.6,8.8c-0.2,0.5-0.9,0.8-1.9,1.1l-1.9,0.4l-1.6,0c-1.8,0-2.4-0.6-3.6-4.1l-5.8-16.4
				c-0.6-1.8-1.3-3.7-1.9-5.5c-0.1-0.3-0.4-0.3-0.6-0.3c-0.5,0.6-1.2,1.5-2.2,1.9c0.1,0.7-0.1,1.5-0.7,3.1l-4.3,12
				c-1.8,5-3,7.9-3.8,9.9c-0.6,1.6-1.5,2.2-2.5,2.4l-1.4,0.3c-0.3,0.2-0.2,0.9,0.1,1c1.2-0.2,2.7-0.4,4.1-0.6c2-0.2,3.3-0.3,4.4-0.4
				c0.4-0.2,0.4-0.9,0.1-1.1l-1.4,0c-1,0-1.2-0.2-1.2-0.7c0-0.5,0.3-1.7,0.9-3.6l1.5-4.6c0.3-0.9,0.5-1.1,1.6-1.2l6.4-0.8
				c1.3-0.1,1.5,0,1.8,0.9l1.9,5.6c0.3,1,0.6,1.7,0.6,2.2c0,0.4-0.6,0.8-1.5,0.9l-1.2,0.3c-0.3,0.2-0.2,0.9,0.1,1.1
				c1.2-0.2,2.8-0.5,4.9-0.7c0.2,0,0.5,0,0.7-0.1c0.4-0.1,0.9-0.1,1.3-0.1c1.3-0.1,2.5-0.2,3.7-0.3l0,0c0.6-0.1,2.8-0.4,4.4-0.7
				c0.3,0,0.5-0.1,0.7-0.1c1.6-0.2,3.1-0.3,5-0.5c0.3-0.2,0.3-0.8,0.1-1.1l-1.3,0c-1.1,0-1.9-0.1-2.2-0.5c-0.7-1.2-0.8-6.7-0.8-8.7
				v-9.3c0-1.3,0-2.3,0.2-2.8l0.1,0c0.9,0.8,3.8,4,4.9,5.2l9.9,10.1c3.7,3.8,4.9,5.1,5.5,5.8c0.5,0,0.7-0.3,0.8-0.6
				c-0.1-1.1-0.1-6.2-0.1-7.4V98.1c0-2-0.1-7.2,0.6-8.9c0.2-0.4,1-0.8,2.4-1.2l0.6-0.2C316,87.7,316,87.1,315.6,86.9z M272.2,107.6
				l-5.2,0.6c-1.2,0.1-1.2,0.1-0.9-0.9l2.7-7.7c0.5-1.3,0.9-2.4,1-2.6l0.1,0c0.2,0.5,0.6,1.6,1,2.6l2.3,6.7
				C273.5,107.2,273.5,107.4,272.2,107.6z"/>
			<path fill="#FFFFFF" d="M406.1,103.5l-1.4,0c-2,0.1-2-1.1-2.1-3.2c-0.3-6.1-0.4-14-0.5-18.5c0-3,0.3-3.8,3-4.4l0.9-0.2
				c0.2-0.2,0.2-0.9-0.1-1c-1.3,0.2-2.7,0.4-3.8,0.6c-0.9,0.1-1.8,0.2-3.2,0.2c-0.1,2-1.3,4.5-3.2,8.6l-4,8.6
				c-1.1,2.3-2.1,4.6-3.3,6.8l-0.1,0c-1-1.8-2-3.6-2.9-5.5l-4.9-9.3c-1.3-2.6-2.4-5.1-2.2-6.8c-1.4,0.3-2.6,0.4-3.5,0.5
				c-1.1,0.1-2.1,0.2-3.4,0.3c-0.3,0.2-0.4,0.8-0.2,1.1l0.7,0c2.6,0,2.9,0.6,2.8,3.3c-0.1,2.3-0.2,6-0.5,9.5
				c-0.3,4.2-0.5,6.6-0.7,9.4c-0.2,3-0.8,3.3-2.6,3.8c0,0,0,0,0,0c-0.1,0-0.2,0-0.3,0.1c-0.1,0-0.1,0-0.2,0.1
				c-0.1,0-0.2,0.1-0.4,0.1c-0.2,0-0.4,0.1-0.5,0.1h-0.1l-1.1,0c-1.8,0-2.4-0.6-3.6-4.1l-5.8-16.4c-0.6-1.8-1.3-3.7-1.9-5.5
				c-0.1-0.3-0.4-0.3-0.6-0.3c-0.5,0.6-1.2,1.5-2.2,1.9c0.1,0.7-0.1,1.5-0.7,3.1l-4.3,12c-1.8,5-3,7.9-3.8,9.9
				c-0.6,1.6-1.5,2.2-2.6,2.4l-1.4,0.3c-0.3,0.2-0.2,0.9,0.1,1.1c1.1-0.2,2.7-0.4,4.1-0.6c2-0.2,3.3-0.3,4.4-0.4
				c0.4-0.2,0.4-0.9,0.1-1.1l-1.4,0c-1,0-1.2-0.2-1.2-0.7c0-0.5,0.3-1.7,0.9-3.6l1.5-4.6c0.3-0.9,0.5-1.1,1.6-1.2l6.4-0.8
				c1.3-0.2,1.4,0,1.7,0.9l1.9,5.6c0.3,1,0.5,1.7,0.5,2.2c0,0.4-0.6,0.8-1.5,0.9l-1.2,0.3c-0.3,0.2-0.2,0.9,0.1,1.1
				c1.2-0.2,2.8-0.5,4.9-0.7c0.2,0,0.5-0.1,0.7-0.1c0.2,0,0.5-0.1,0.7-0.1c0.2,0,0.4,0,0.6-0.1c0.4,0,0.8-0.1,1.2-0.1
				c0.3,0,0.6-0.1,0.9-0.1c0.3,0,0.6-0.1,0.9-0.1c0,0,0.1,0,0.1,0c0.1,0,0.2,0,0.3,0c0.1,0,0.2,0,0.3,0c0,0,0.1,0,0.2,0
				c1.2-0.2,2.5-0.4,3.6-0.5c0.2,0,0.4-0.1,0.6-0.1c1.6-0.2,3.3-0.4,4.7-0.4c0.3-0.2,0.3-0.9,0-1.1l-1.6,0.1
				c-1.7,0.1-1.9-0.6-1.9-3.7c0-3.6,0.2-7.4,0.3-10c0.1-2.5,0.2-5,0.4-7.6l0.1,0c0.9,1.8,1.8,4,2.7,5.8l3.8,7.8c1,2,3,5.9,3.8,8.1
				c0.1,0.1,0.3,0.1,0.4,0.1c0.2,0,0.3-0.1,0.4-0.2c0.8-2,2.7-6.3,4.6-10.2l3.8-7.9c0.9-1.8,2.5-5.4,2.8-5.9l0.1,0l0.1,17.7
				c0,2.7,0,3.4-2.1,3.9l-1.2,0.3c-0.2,0.3-0.2,0.9,0.1,1.1c1.7-0.3,3.7-0.6,5.2-0.7c1.5-0.2,3.3-0.3,5-0.5
				C406.3,104.4,406.3,103.7,406.1,103.5z M357.4,97.5l-5.2,0.6c-1.2,0.1-1.2,0.1-0.9-0.9l2.7-7.7c0.5-1.3,0.9-2.4,1-2.6l0.1,0
				c0.3,0.5,0.6,1.6,1,2.6l2.3,6.7C358.7,97.2,358.6,97.4,357.4,97.5z"/>
		</g>
	</g>
	<g>
		<g>
			<g>
				<g>
					<path fill="#FFFFFF" d="M82.2,247.4l-0.4,0.8l0.5-0.1C82.3,247.9,82.2,247.6,82.2,247.4z"/>
				</g>
			</g>
		</g>
		<g>
			<g>
				<g>
					<path fill="#FFFFFF" d="M150.8,233.5c-1,3.4,0.3,5.2,0.3,5.2l-3.2,0.4l-13.8,1.5c0,0,1.3-2.1,0.3-5.3
						c-1-3.2-16.6-52.7-16.6-52.7l-0.2,0c0,0-0.9,3-2.2,7.6c-4.4,14.9-13.8,46.7-14.4,48.9c-0.7,2.9,0.3,5.2,0.3,5.2l-3.2,0.4
						l-13.1,1.4c0,0,1-2.1,0-5.3c-4.7-15.3-18.4-60.3-20-65.5c-0.1-0.2-0.1-0.4-0.1-0.4c-0.7-2.2-3.2-4.8-3.2-4.8l19.1-2.2
						c0,0-1.2,3.7-0.8,5.3c0.3,1.4,10.6,39.7,12.9,48.2c0.3,1.1,0.5,1.7,0.5,1.7l0.2,0c0,0,13.3-44,15.9-52.7
						c0.2-0.7,0.4-1.2,0.4-1.4c0.6-2.1-0.6-4.2-0.6-4.2l17.1-1.8c0,0-0.6,2.4-0.2,4.3c0.4,1.7,12.4,39.4,15.3,48.5
						c0.4,1.3,0.6,2,0.6,2l0.2,0c0,0,12.7-47.7,14-52.5c0-0.2,0.1-0.3,0.1-0.4c0.5-1.9-1-5.2-1-5.2l17.8-1.9c0,0-2,2.9-2.8,5.5
						C170,165.4,155.6,216.5,150.8,233.5z"/>
				</g>
			</g>
			<g>
				<g>
					<path fill="#FFFFFF" d="M201,232.8l-4.5,0.5l-12.2,1.3c0,0,1.2-2.1,1.2-5.3c0-15.7-0.1-62.3,0-67.7c0-0.2,0-0.3,0-0.4
						c0.1-3.3-1.3-5.1-1.3-5.1l16.5-1.8c0,0-1.1,2.2-1.2,5.4c-0.1,2.6,0,51.7,0,68C199.5,231,201,232.8,201,232.8z"/>
				</g>
			</g>
			<g>
				<g>
					<path fill="#FFFFFF" d="M261.2,213.2l-0.1,15c0,0-0.5-0.2-1.2-0.4c-0.1,0-0.2-0.1-0.3-0.1c-0.2,0-0.3-0.1-0.5-0.1
						c-0.2,0-0.5-0.1-0.7-0.1c-0.1,0-0.1,0-0.2,0c-0.1,0-0.2,0-0.3,0c0,0-0.1,0-0.1,0c-0.6,0-1.2,0-1.8,0.1
						c-2.8,0.3-42.2,4.6-42.2,4.6s0-65.6,0-72.9v-0.6c0-2.7-1.3-4.9-1.3-4.9l16.4-1.8c0,0-1.1,2.6-1.1,5.4c0,2.8,0,60.6,0,60.6
						s26.1-2.8,28.9-3.1C259.4,214.5,261.2,213.2,261.2,213.2z"/>
				</g>
			</g>
			<g>
				<g>
					<path fill="#FFFFFF" d="M320.6,185.6c1.8,2.6,2.8,6.2,2.8,10.9c0,4.2-0.8,8-2.3,11.3c-0.4,0.8-0.8,1.6-1.3,2.4
						c-0.3,0.4-0.5,0.9-0.8,1.3c0,0,0,0,0,0c-0.5,0.7-1,1.3-1.5,2c-0.2,0.3-0.4,0.5-0.7,0.8c-0.4,0.4-0.7,0.8-1.1,1.2
						c-0.3,0.3-0.6,0.6-1,0.9c-2.6,2.4-5.7,4.2-9.2,5.7c-3.5,1.4-7.1,2.3-11,2.7c-4.9,0.5-9.6,0.2-14.1-0.9
						c-2.9-0.7-5.5-1.9-7.9-3.6c-0.8-0.6-1.6-1.3-2.6-1.8c-0.6-0.3-1.3-0.5-2-0.6l12.3-13.2c0.4,1.5,1.1,3.2,2.3,4.2
						c1.1,0.8,2.2,1.5,3.6,2c2.8,1.1,5.7,1.5,8.8,1.2c1.6-0.2,3.3-0.6,4.9-1.2c1.6-0.6,3.1-1.4,4.4-2.5c0.3-0.2,0.5-0.4,0.8-0.7
						c0.1-0.1,0.2-0.2,0.3-0.3c0.1-0.1,0.2-0.2,0.3-0.3c0.2-0.2,0.4-0.4,0.5-0.6c0.2-0.2,0.4-0.5,0.6-0.8c0,0,0.1-0.1,0.1-0.1
						c0.1-0.1,0.1-0.2,0.2-0.3c0.2-0.2,0.3-0.5,0.5-0.7c0.8-1.5,1.2-3.1,1.2-4.9c0-2.9-0.9-5-2.8-6.3c-1.8-1.4-4.1-2.4-6.9-3.2
						c-2.7-0.8-5.7-1.5-9-2.1c-3.3-0.6-6.2-1.6-9-3c-2.7-1.4-5-3.3-6.9-5.9c-1.8-2.6-2.8-6.2-2.8-10.8c0-0.9,0-1.7,0.1-2.6
						c0-0.3,0.1-0.7,0.1-1c0-0.4,0.1-0.8,0.2-1.1c0.1-0.4,0.1-0.7,0.2-1c0.1-0.3,0.2-0.7,0.3-1c0.1-0.2,0.1-0.5,0.2-0.7c0,0,0,0,0,0
						c0,0,0,0,0,0c0.2-0.6,0.4-1.1,0.6-1.7c0.1-0.2,0.2-0.4,0.3-0.6c0.2-0.4,0.3-0.7,0.5-1c1.7-3.1,3.8-5.8,6.5-8.1
						c2.7-2.2,5.8-4,9.3-5.4c3.5-1.3,7-2.2,10.7-2.6c4.1-0.5,8.2-0.3,12,0.6c2.1,0.5,4.1,1.1,5.9,2.1c1.6,0.8,3.7,1.6,5.6,1.8
						l-4.8,5.6l-7.3,8.4c-0.4-1.9-1.1-3.2-2.4-4c-0.8-0.5-1.7-0.9-2.7-1.1c-2.5-0.7-5.1-0.9-7.8-0.7c-1.6,0.2-3.2,0.5-4.7,1.1
						c-1.5,0.5-2.9,1.3-4.1,2.2c-1.2,0.9-2.2,2.1-2.9,3.5c-0.1,0.3-0.3,0.5-0.4,0.8c-0.1,0.2-0.1,0.3-0.2,0.5
						c-0.1,0.2-0.1,0.4-0.2,0.6c-0.1,0.2-0.1,0.3-0.1,0.5c-0.1,0.3-0.1,0.6-0.2,1c-0.1,0.4-0.1,0.9-0.1,1.4c0,2.7,0.9,4.6,2.8,5.8
						c1.8,1.2,4.1,2.2,6.9,2.9c2.7,0.7,5.7,1.4,9,2c3.3,0.6,6.2,1.6,9,3C316.5,181,318.8,183,320.6,185.6z"/>
				</g>
			</g>
			<g>
				<g>
					<path fill="#FFFFFF" d="M411,153.3c-2.1-4.9-5-8.9-8.7-12.1c-3.7-3.2-8.1-5.5-13.2-6.8c-5.1-1.3-10.7-1.6-16.9-0.9
						c-6.1,0.7-11.6,2.2-16.7,4.8c-5.1,2.5-9.4,5.8-13.1,9.8c-3.4,3.7-6.1,8-8.1,12.9c-0.2,0.4-0.3,0.8-0.5,1.2
						c-2.1,5.4-3.1,11.2-3.1,17.5c0,6.1,1,11.6,3.1,16.4c2.1,4.8,4.9,8.8,8.6,12c3.7,3.2,8,5.5,13.1,6.9c5.1,1.4,10.6,1.8,16.7,1.1
						c6.1-0.7,11.8-2.4,16.9-5s9.5-5.9,13.2-9.9c2-2.2,3.8-4.6,5.4-7.3c1.3-2.1,2.4-4.3,3.3-6.7c2.1-5.3,3.1-10.9,3.1-17.1
						C414.1,163.7,413,158.2,411,153.3z M397.5,183c-0.9,2.5-2,4.7-3.3,6.8c-0.7,1.1-1.4,2.1-2.2,3c-2.4,2.9-5.2,5.2-8.5,7
						c-3.3,1.8-7,3-11.1,3.4c-4.1,0.4-7.7,0.1-11-1c-3.3-1.1-6.1-2.8-8.5-5.2c-2.4-2.3-4.2-5.2-5.5-8.6c-1.3-3.4-1.9-7.2-1.9-11.4
						c0-3.9,0.7-7.7,1.9-11.2c0-0.1,0.1-0.2,0.1-0.3c1.3-3.4,3.1-6.5,5.4-9.2c2.4-2.8,5.2-5.1,8.5-6.9c3.3-1.8,7-2.9,11-3.4
						c4.1-0.4,7.8-0.1,11.1,1s6.2,2.8,8.5,5.1c2.4,2.3,4.2,5.1,5.5,8.3c1.3,3.3,1.9,6.9,1.9,10.8C399.4,175.4,398.8,179.3,397.5,183
						z"/>
				</g>
			</g>
			<g>
				<g>
					<path fill="#FFFFFF" d="M497.8,201.1l-4.6,0.5l-14.8,1.6l-38.8-56l-0.2,0c0,0,0,4,0,9.9c0,15.3,0,43.2,0,45.1
						c0,2.7,1.4,5,1.4,5l-4.4,0.5l-12.2,1.4c0,0,1.2-2.1,1.2-5.3c0-15.6,0-61.9,0-67.7v-0.5c0-2.6-1.8-4.9-1.8-4.9l20.3-2.3
						l35.3,50.3l2.8,3.9l0.2,0c0,0,0-46.6,0-52.7v-0.6c0-2.4-1.4-4.9-1.4-4.9l16.7-1.8c0,0-1.2,2.3-1.3,5.4c-0.1,2.6,0,51.6,0,68
						C496.2,199.3,497.8,201.1,497.8,201.1z"/>
				</g>
			</g>
		</g>
	</g>
	<g>
		<g>
			<path fill="#FFFFFF" d="M25,207.5c0-1.6-0.1-2.2-1.2-2.1l-1.2,0.1c-0.2-0.1-0.2-0.4,0-0.5c2-0.6,3.3-1.4,4-1.9
				c0.1,0,0.2,0,0.2,0.1c0,0.4-0.1,1.6-0.1,3v9.3c0,1.9,0,2.3,1,2.2l1-0.1c0.1,0.1,0.1,0.5,0,0.6c-0.9,0.1-2,0.2-2.9,0.3
				c-0.9,0.1-1.9,0.3-2.9,0.5c-0.2,0-0.2-0.4,0-0.6l1-0.2c1-0.2,1-0.6,1-2.5V207.5z"/>
			<path fill="#FFFFFF" d="M34.8,205.9c0,1.9,0.9,3.9,2.8,3.7c0.6-0.1,0.8-0.1,1.1-0.2c0.1,0,0.1,0.2,0.1,0.3
				c-0.5,0.5-1.2,0.9-2.2,1c-1.9,0.3-3.7-1.1-3.7-3.6c0-2.9,2.2-5.2,4.9-5.6c3-0.4,4.8,1.9,4.8,5.5c0,2.6-1.1,5.9-3.5,8.4
				c-1.8,1.8-4.1,3-5.7,3.6c-0.2,0-0.3-0.4-0.1-0.5c1.4-0.6,2.6-1.4,3.6-2.2c2.2-1.9,3.7-4.6,3.7-9.2c0-2.2-0.6-5.1-3-4.8
				C35.9,202.4,34.8,203.7,34.8,205.9z"/>
		</g>
		<g>
			<path fill="#FFFFFF" d="M527.8,154.7c0,2-1.6,3.1-2.8,4c1.7,0.7,3.2,1.7,3.2,4c0,2.5-2,4.4-4.8,4.8c-2.1,0.3-4.4-0.5-4.4-3.4
				c0-1.8,1.7-3.3,3.2-4.5c-1.4-0.6-2.7-1.5-2.7-3.4c0-2.4,2-4.2,4.4-4.5C526,151.4,527.8,152.4,527.8,154.7z M526.4,163.5
				c0-1.9-1.8-3-3.6-3.5c-1.6,1.3-2.2,2.7-2.2,3.7c0,2,1.2,3.3,3,3.1C525.3,166.5,526.4,165.2,526.4,163.5z M521.2,155.5
				c0,1.7,1.6,2.4,3.1,3c1.1-0.9,1.9-2.1,1.9-3.5c0-1.5-1-2.7-2.5-2.5C522,152.7,521.2,154.1,521.2,155.5z"/>
			<path fill="#FFFFFF" d="M532.7,151.6c0.1-0.4,0.2-0.6,0.6-0.7l5.8-1.6c0.1,0,0.2,0.1,0.2,0.2c-0.2,0.6-0.5,1.2-0.9,1.6l-4.5,1.3
				c-0.6,0.1-0.7,0.3-0.8,0.8l-0.4,1.5c-0.1,0.3,0,0.4,0.3,0.4l0.5,0c3-0.1,6.4,0.7,6.4,4.4c0,4.2-4.8,7.7-8.6,8.4
				c-0.3-0.1-0.3-0.5-0.1-0.7c3.7-0.7,6.9-3.5,6.9-6.7c0-3.4-3.6-3.8-6.5-3.4c-0.4,0.1-0.4-0.1-0.2-0.7L532.7,151.6z"/>
		</g>
	</g>
</g>
</svg>
