<?xml version="1.0" encoding="utf-8"?>
<!-- Generator: Adobe Illustrator 19.1.0, SVG Export Plug-In . SVG Version: 6.00 Build 0)  -->
<!DOCTYPE svg PUBLIC "-//W3C//DTD SVG 1.1//EN" "http://www.w3.org/Graphics/SVG/1.1/DTD/svg11.dtd">
<svg version="1.1" id="Layer_1" xmlns="http://www.w3.org/2000/svg" xmlns:xlink="http://www.w3.org/1999/xlink" x="0px" y="0px"
	 viewBox="0 0 1224 374.9" enable-background="new 0 0 1224 374.9" xml:space="preserve">
<g>
	<defs>
		<polygon id="SVGID_1_" points="28.6,112.5 237.1,112.5 237.1,84 261.1,84 261.1,112.5 285.1,112.5 324.1,51 360.1,51 360.1,40.5 
			384.1,40.5 384.1,52.5 441.1,51 441.1,40.5 462.1,40.5 462.1,51 484.6,51 537.1,112.5 537.1,120 570.1,120 570.1,105 591.1,105 
			591.1,120 657.1,120 657.1,109.5 715.6,40.5 724.6,40.5 724.6,27 748.6,27 748.6,40.5 820.6,40.5 820.6,27 846.1,27 846.1,42 
			864.1,42 900.1,96 1008.1,96 1014.1,73.5 1041.1,73.5 1041.1,63 1059.1,63 1059.1,79.5 1185.1,79.5 1200.1,172.5 1272.1,261 
			1297.6,520.5 -17.9,514.5 -152.9,424.5 -118,22.5 		"/>
	</defs>
	<clipPath id="SVGID_2_">
		<use xlink:href="#SVGID_1_"  overflow="visible"/>
	</clipPath>
	<g clip-path="url(#SVGID_2_)">
		<defs>
			<rect id="SVGID_3_" x="-118" y="-23.4" width="1342" height="441.7"/>
		</defs>
		<clipPath id="SVGID_4_">
			<use xlink:href="#SVGID_3_"  overflow="visible"/>
		</clipPath>
	</g>
	<g clip-path="url(#SVGID_2_)">
		
			<image overflow="visible" width="1400" height="1891" xlink:href="../../../../../Image_Dump/357f3ede3a96bf24ff76d82b560391d5.png"  transform="matrix(0.8871 0 0 0.8871 -9 -1295.6124)">
		</image>
	</g>
</g>
<g>
	<defs>
		<polygon id="SVGID_5_" points="1129.9,490.6 931.3,490.6 931.3,466.4 908.4,466.4 908.4,490.6 885.6,490.6 848.4,438.2 
			814.1,438.2 814.1,429.3 791.3,429.3 791.3,439.5 737,438.2 737,429.3 717,429.3 717,438.2 695.6,438.2 645.6,490.6 645.6,497 
			614.1,497 614.1,484.3 594.1,484.3 594.1,497 531.3,497 531.3,488.1 475.6,429.3 467,429.3 467,417.8 444.1,417.8 444.1,429.3 
			375.6,429.3 375.6,417.8 351.3,417.8 351.3,430.6 334.1,430.6 299.9,476.6 197,476.6 191.3,457.4 165.6,457.4 165.6,448.5 
			148.4,448.5 148.4,462.5 28.4,462.5 14.1,541.8 -54.4,617.2 -78.7,838.4 1174.1,833.3 1302.7,756.6 1269.5,413.9 		"/>
	</defs>
	<clipPath id="SVGID_6_">
		<use xlink:href="#SVGID_5_"  overflow="visible"/>
	</clipPath>
	<g clip-path="url(#SVGID_6_)">
		<defs>
			<rect id="SVGID_7_" x="-8.7" y="374.8" width="1278.2" height="376.5"/>
		</defs>
		<clipPath id="SVGID_8_">
			<use xlink:href="#SVGID_7_"  overflow="visible"/>
		</clipPath>
	</g>
	<g clip-path="url(#SVGID_6_)">
		
			<image overflow="visible" width="1400" height="1891" xlink:href="../../../../../Image_Dump/357f3ede3a96bf24ff76d82b560391d5.png"  transform="matrix(-0.8449 0 0 0.7562 1165.6881 -709.6796)">
		</image>
	</g>
</g>
</svg>
